<?xml version="1.0" standalone="no"?>
<!DOCTYPE svg PUBLIC "-//W3C//DTD SVG 20010904//EN"
 "http://www.w3.org/TR/2001/REC-SVG-20010904/DTD/svg10.dtd">
<svg version="1.0" xmlns="http://www.w3.org/2000/svg"
 width="512.000000pt" height="512.000000pt" viewBox="0 0 512.000000 512.000000"
 preserveAspectRatio="xMidYMid meet">
<metadata>
Created by potrace 1.14, written by Peter Selinger 2001-2017
</metadata>
<g transform="translate(0.000000,512.000000) scale(0.100000,-0.100000)"
fill="#000000" stroke="none">
<path d="M1041 5104 c-108 -18 -238 -62 -348 -118 -246 -124 -454 -337 -568
-581 -21 -44 -42 -88 -47 -98 -7 -14 1 -35 34 -89 24 -38 52 -84 62 -101 68
-113 156 -243 231 -342 84 -110 250 -360 315 -475 68 -122 162 -279 213 -355
22 -33 70 -116 107 -185 84 -156 209 -354 320 -507 70 -96 106 -134 204 -216
137 -114 237 -167 358 -192 103 -20 117 -20 496 15 438 40 461 36 637 -119 56
-49 92 -74 95 -67 8 19 203 -33 313 -83 200 -92 249 -116 259 -128 8 -10 1 -9
-24 1 -83 35 -324 75 -450 76 -94 0 -199 22 -309 65 -61 24 -129 42 -194 51
-55 8 -134 19 -175 25 -77 12 -187 50 -253 89 -27 16 -37 18 -37 8 0 -18 73
-62 151 -92 61 -23 94 -29 302 -56 48 -6 120 -27 191 -55 129 -50 189 -61 361
-70 142 -6 347 -46 428 -82 73 -33 134 -100 166 -181 22 -58 23 -71 18 -199
-13 -334 -134 -523 -365 -572 -82 -17 -146 -13 -251 15 -71 20 -119 27 -184
27 l-88 -1 69 72 c58 60 74 84 102 156 18 47 35 102 37 122 5 32 13 41 65 73
33 21 75 53 94 72 l35 35 -23 25 c-23 25 -198 133 -216 133 -5 0 -26 14 -47
30 -38 30 -101 53 -185 66 -61 9 -170 64 -256 130 -92 70 -139 90 -255 109
-102 16 -289 20 -289 6 0 -16 30 -21 125 -21 106 0 224 -20 289 -48 24 -11 78
-45 119 -77 77 -58 201 -116 272 -129 81 -15 114 -26 109 -39 -3 -8 13 -19 46
-29 56 -18 241 -120 261 -144 8 -10 9 -18 3 -22 -109 -75 -141 -96 -190 -120
-33 -17 -69 -33 -81 -37 -13 -3 -23 -11 -23 -17 0 -13 63 -2 102 17 27 13 28
13 22 -13 -4 -15 -20 -63 -37 -107 -27 -71 -41 -91 -121 -175 -106 -111 -159
-149 -259 -189 -91 -36 -161 -51 -240 -51 -81 0 -139 17 -272 77 -136 63 -227
91 -316 99 -58 6 -69 4 -69 -8 0 -29 -147 -53 -325 -53 -142 0 -167 3 -225 23
-88 32 -286 127 -412 200 -141 81 -221 121 -298 148 -61 21 -98 22 -69 2 31
-21 -38 5 -81 31 -61 36 -100 98 -145 231 -24 70 -54 134 -80 172 -47 67 -221
258 -236 258 -13 0 -12 -350 2 -446 17 -121 55 -239 119 -369 152 -310 412
-538 734 -645 190 -62 129 -60 1701 -60 1250 0 1443 2 1516 15 458 85 835 412
978 849 64 193 61 118 61 1696 0 1568 2 1496 -57 1684 -24 78 -81 202 -125
276 -79 130 -239 298 -368 384 -141 95 -329 173 -472 195 -95 15 -158 21 -158
16 0 -3 15 -42 34 -87 18 -46 37 -94 41 -108 4 -14 38 -97 76 -185 40 -94 74
-191 83 -235 17 -88 44 -161 93 -249 23 -41 44 -102 60 -170 13 -58 37 -151
53 -206 30 -105 52 -214 69 -352 6 -47 30 -141 55 -216 62 -184 74 -274 53
-399 -20 -120 -59 -206 -121 -275 -43 -48 -48 -58 -23 -54 4 1 6 -13 3 -31 -3
-18 -10 -76 -16 -128 -6 -52 -24 -138 -40 -190 -16 -52 -40 -134 -54 -182 -15
-48 -31 -90 -38 -94 -8 -5 -9 0 -4 17 21 71 29 285 17 462 l-13 182 31 139
c29 129 31 152 30 305 -2 140 1 180 19 254 12 48 29 101 37 117 13 25 13 30 1
30 -16 0 -48 -71 -70 -156 -12 -45 -16 -109 -16 -229 0 -152 -3 -179 -32 -303
l-32 -137 12 -205 c22 -406 -12 -553 -152 -648 -83 -55 -139 -67 -331 -67
-185 0 -228 8 -329 57 -113 57 -184 152 -222 297 -14 57 -15 78 -3 177 12 109
9 239 -7 279 -6 15 3 12 42 -17 27 -19 66 -47 87 -61 40 -27 190 -67 252 -67
35 0 45 -7 112 -80 42 -45 83 -80 93 -80 25 0 60 61 108 186 21 54 46 111 55
126 13 18 23 66 32 150 15 143 31 192 111 345 l58 112 1 143 c0 165 -12 291
-29 285 -6 -2 -10 -21 -8 -43 2 -21 4 -115 5 -209 l2 -170 -35 -65 c-77 -146
-92 -179 -110 -251 -11 -41 -20 -94 -20 -119 0 -72 -11 -119 -25 -114 -8 3
-16 -14 -24 -53 -12 -61 -93 -269 -112 -287 -19 -19 -134 114 -225 261 -7 10
-15 15 -19 11 -4 -4 6 -34 23 -67 l30 -59 -36 5 c-80 11 -198 46 -226 66 -102
70 -215 161 -239 192 -43 54 -113 192 -133 260 -26 90 -22 201 11 310 52 171
65 230 72 313 4 59 3 82 -6 82 -6 0 -11 -10 -11 -22 0 -21 0 -21 -22 -2 -51
46 -182 214 -208 269 -78 163 -120 417 -119 715 1 213 -23 398 -41 315 l-6
-30 -17 32 c-21 39 -22 102 -2 166 l14 47 -757 -1 c-599 -1 -774 -4 -841 -15z
m-881 -894 c6 -11 8 -20 6 -20 -3 0 -10 9 -16 20 -6 11 -8 20 -6 20 3 0 10 -9
16 -20z m78 -135 c-3 -3 -9 2 -12 12 -6 14 -5 15 5 6 7 -7 10 -15 7 -18z
m2689 -927 c-3 -8 -6 -5 -6 6 -1 11 2 17 5 13 3 -3 4 -12 1 -19z m-10 -130
c-2 -18 -4 -4 -4 32 0 36 2 50 4 33 2 -18 2 -48 0 -65z m10 -70 c-3 -8 -6 -5
-6 6 -1 11 2 17 5 13 3 -3 4 -12 1 -19z m43 -123 c0 -5 -5 -3 -10 5 -5 8 -10
20 -10 25 0 6 5 3 10 -5 5 -8 10 -19 10 -25z m-1549 -602 c13 -16 12 -17 -3
-4 -10 7 -18 15 -18 17 0 8 8 3 21 -13z m329 -279 c0 -2 -9 0 -20 6 -11 6 -20
13 -20 16 0 2 9 0 20 -6 11 -6 20 -13 20 -16z m1067 -30 c-3 -3 -12 -4 -19 -1
-8 3 -5 6 6 6 11 1 17 -2 13 -5z m-404 -21 c-7 -2 -21 -2 -30 0 -10 3 -4 5 12
5 17 0 24 -2 18 -5z m-110 -10 c-7 -2 -21 -2 -30 0 -10 3 -4 5 12 5 17 0 24
-2 18 -5z m1843 -152 c-44 -89 -82 -145 -137 -199 -43 -42 -43 -42 -55 -20
-20 37 -47 145 -41 162 4 9 17 16 29 16 50 0 184 64 217 104 27 32 22 7 -13
-63z m66 47 c-8 -8 -9 -4 -5 13 4 13 8 18 11 10 2 -7 -1 -18 -6 -23z m-1082
-51 c13 -5 13 -6 -1 -6 -8 -1 -28 14 -45 32 l-29 32 30 -26 c17 -15 37 -29 45
-32z m1067 3 c-7 -17 -13 -26 -15 -21 -3 10 15 51 22 51 3 0 -1 -14 -7 -30z
m-1000 -16 c-3 -3 -12 -4 -19 -1 -8 3 -5 6 6 6 11 1 17 -2 13 -5z m40 -10 c-3
-3 -12 -4 -19 -1 -8 3 -5 6 6 6 11 1 17 -2 13 -5z m293 -104 c30 -16 51 -29
45 -29 -5 0 -35 13 -65 29 -30 16 -50 29 -45 29 6 0 35 -13 65 -29z m85 -40
c3 -6 -1 -7 -9 -4 -18 7 -21 14 -7 14 6 0 13 -4 16 -10z m445 -34 c0 -2 -8
-10 -17 -17 -16 -13 -17 -12 -4 4 13 16 21 21 21 13z m-53 -275 c49 -40 113
-118 113 -137 0 -12 -100 -34 -157 -34 l-30 0 -6 72 c-5 54 -15 90 -39 139
l-33 66 54 -34 c30 -20 74 -52 98 -72z m73 -16 c13 -14 21 -25 18 -25 -2 0
-15 11 -28 25 -13 14 -21 25 -18 25 2 0 15 -11 28 -25z m3 -182 c-7 -2 -19 -2
-25 0 -7 3 -2 5 12 5 14 0 19 -2 13 -5z m-70 -10 c-13 -2 -35 -2 -50 0 -16 2
-5 4 22 4 28 0 40 -2 28 -4z m-3456 -259 c-3 -3 -12 -4 -19 -1 -8 3 -5 6 6 6
11 1 17 -2 13 -5z m76 -1 c-7 -2 -19 -2 -25 0 -7 3 -2 5 12 5 14 0 19 -2 13
-5z m3127 -236 c0 -2 -10 -12 -22 -23 l-23 -19 19 23 c18 21 26 27 26 19z
m-55 -47 c-3 -5 -16 -15 -28 -21 -19 -9 -19 -8 3 10 28 23 34 26 25 11z m-905
-145 c-14 -8 -29 -14 -35 -14 -5 0 1 6 15 14 14 8 30 14 35 14 6 0 -1 -6 -15
-14z m-95 -35 c-11 -5 -29 -8 -40 -8 -16 0 -15 2 5 8 34 11 60 11 35 0z m-228
-16 c-3 -3 -12 -4 -19 -1 -8 3 -5 6 6 6 11 1 17 -2 13 -5z m156 -1 c-7 -2 -19
-2 -25 0 -7 3 -2 5 12 5 14 0 19 -2 13 -5z"/>
</g>
</svg>
